<mxfile host="Electron" modified="2024-05-16T01:20:31.379Z" agent="Mozilla/5.0 (Windows NT 10.0; Win64; x64) AppleWebKit/537.36 (KHTML, like Gecko) draw.io/24.2.5 Chrome/120.0.6099.109 Electron/28.1.0 Safari/537.36" etag="LP02lyEnzeRMtd-h379N" version="24.2.5" type="device">
  <diagram name="第 1 页" id="ewl9boTtj5eG1xmZE2dz">
    <mxGraphModel dx="97" dy="62" grid="1" gridSize="3.937" guides="1" tooltips="1" connect="1" arrows="1" fold="1" page="1" pageScale="1" pageWidth="48" pageHeight="48" background="#464647" math="0" shadow="0">
      <root>
        <mxCell id="0" />
        <mxCell id="1" parent="0" />
        <mxCell id="VMPgF3lo1GRiGYO-Sckb-1" value="" style="rounded=0;whiteSpace=wrap;html=1;fillColor=none;strokeColor=#E6E6E6;strokeWidth=2;" parent="1" vertex="1">
          <mxGeometry x="4" y="3.94" width="39.31" height="39.37" as="geometry" />
        </mxCell>
        <mxCell id="fN3dAC_mav03bKdnQGWb-1" value="" style="rounded=0;whiteSpace=wrap;html=1;fillColor=none;strokeColor=#E6E6E6;strokeWidth=1;" vertex="1" parent="1">
          <mxGeometry x="15.75" y="15.75" width="15.75" height="15.75" as="geometry" />
        </mxCell>
        <mxCell id="fN3dAC_mav03bKdnQGWb-2" value="" style="endArrow=none;dashed=1;html=1;rounded=0;entryX=1;entryY=0;entryDx=0;entryDy=0;exitX=1;exitY=0;exitDx=0;exitDy=0;strokeWidth=1;strokeColor=#E6E6E6;dashPattern=1 2;" edge="1" parent="1" source="fN3dAC_mav03bKdnQGWb-1" target="VMPgF3lo1GRiGYO-Sckb-1">
          <mxGeometry width="50" height="50" relative="1" as="geometry">
            <mxPoint x="4" y="54" as="sourcePoint" />
            <mxPoint x="54" y="4" as="targetPoint" />
          </mxGeometry>
        </mxCell>
        <mxCell id="fN3dAC_mav03bKdnQGWb-3" value="" style="endArrow=none;dashed=1;html=1;rounded=0;entryX=0;entryY=0;entryDx=0;entryDy=0;exitX=0;exitY=0;exitDx=0;exitDy=0;strokeWidth=1;strokeColor=#E6E6E6;dashPattern=1 2;" edge="1" parent="1" source="fN3dAC_mav03bKdnQGWb-1" target="VMPgF3lo1GRiGYO-Sckb-1">
          <mxGeometry width="50" height="50" relative="1" as="geometry">
            <mxPoint x="35.937" y="19.937" as="sourcePoint" />
            <mxPoint x="46.937" y="7.936999999999999" as="targetPoint" />
          </mxGeometry>
        </mxCell>
        <mxCell id="fN3dAC_mav03bKdnQGWb-4" value="" style="endArrow=none;dashed=1;html=1;rounded=0;entryX=1;entryY=1;entryDx=0;entryDy=0;exitX=1;exitY=1;exitDx=0;exitDy=0;strokeWidth=1;strokeColor=#E6E6E6;dashPattern=1 2;" edge="1" parent="1" source="VMPgF3lo1GRiGYO-Sckb-1" target="fN3dAC_mav03bKdnQGWb-1">
          <mxGeometry width="50" height="50" relative="1" as="geometry">
            <mxPoint x="43.307" y="43.307" as="sourcePoint" />
            <mxPoint x="31.307000000000002" y="31.307000000000002" as="targetPoint" />
          </mxGeometry>
        </mxCell>
        <mxCell id="fN3dAC_mav03bKdnQGWb-5" value="" style="endArrow=none;dashed=1;html=1;rounded=0;entryX=0;entryY=1;entryDx=0;entryDy=0;exitX=0;exitY=1;exitDx=0;exitDy=0;strokeWidth=1;strokeColor=#E6E6E6;dashPattern=1 2;" edge="1" parent="1" source="VMPgF3lo1GRiGYO-Sckb-1" target="fN3dAC_mav03bKdnQGWb-1">
          <mxGeometry width="50" height="50" relative="1" as="geometry">
            <mxPoint x="35.937" y="19.937" as="sourcePoint" />
            <mxPoint x="46.937" y="7.936999999999999" as="targetPoint" />
          </mxGeometry>
        </mxCell>
      </root>
    </mxGraphModel>
  </diagram>
</mxfile>
